<mxfile host="app.diagrams.net" agent="Mozilla/5.0 (Macintosh; Intel Mac OS X 10_15_7) AppleWebKit/537.36 (KHTML, like Gecko) Chrome/129.0.0.0 Safari/537.36" version="24.8.3">
  <diagram name="Page-1" id="9361dd3d-8414-5efd-6122-117bd74ce7a7">
    <mxGraphModel dx="1226" dy="1387" grid="0" gridSize="1" guides="1" tooltips="1" connect="1" arrows="1" fold="1" page="0" pageScale="1.5" pageWidth="826" pageHeight="1169" background="#000000" math="0" shadow="0">
      <root>
        <mxCell id="0" />
        <mxCell id="1" parent="0" />
        <mxCell id="HnRHryOFo4jIYyD-wib6-107" value="" style="rounded=0;whiteSpace=wrap;html=1;fillColor=#1A1A1A;" vertex="1" parent="1">
          <mxGeometry x="970" y="36" width="608" height="685" as="geometry" />
        </mxCell>
        <mxCell id="HnRHryOFo4jIYyD-wib6-99" value="" style="rounded=0;whiteSpace=wrap;html=1;fillColor=#003300;" vertex="1" parent="1">
          <mxGeometry x="449" y="34" width="322" height="687" as="geometry" />
        </mxCell>
        <mxCell id="2" value="" style="fillColor=#EA6B66;strokeColor=#EA6B66;fontSize=15;fontColor=#EEEEEE;labelBackgroundColor=none;" parent="1" vertex="1">
          <mxGeometry x="499.5" y="211" width="10" height="481" as="geometry" />
        </mxCell>
        <mxCell id="3" value="" style="edgeStyle=none;verticalLabelPosition=top;verticalAlign=bottom;labelPosition=left;align=right;fontSize=15;entryX=0.11;entryY=0.098;entryDx=0;entryDy=0;exitX=0.75;exitY=0;exitDx=0;exitDy=0;fontColor=#FFFFFF;labelBackgroundColor=none;strokeColor=#EA6B66;strokeWidth=3;entryPerimeter=0;" parent="1" target="26" edge="1">
          <mxGeometry width="100" height="100" as="geometry">
            <mxPoint x="504.5" y="259" as="sourcePoint" />
            <mxPoint x="901.9000000000001" y="255" as="targetPoint" />
            <mxPoint x="367" y="495" as="offset" />
          </mxGeometry>
        </mxCell>
        <mxCell id="24" value="Backend API" style="shadow=1;fillColor=#09555B;strokeColor=none;fontSize=15;fontColor=#EEEEEE;labelBackgroundColor=none;" parent="1" vertex="1">
          <mxGeometry x="1026.9" y="83" width="214" height="50" as="geometry" />
        </mxCell>
        <mxCell id="25" value="" style="edgeStyle=none;endArrow=none;dashed=1;fontSize=15;fontColor=default;labelBackgroundColor=none;strokeColor=#0B4D6A;" parent="1" source="24" target="26" edge="1">
          <mxGeometry x="727.3350694444446" y="165" width="100" height="100" as="geometry">
            <mxPoint x="886.15887345679" y="135" as="sourcePoint" />
            <mxPoint x="886.4761959876544" y="190" as="targetPoint" />
          </mxGeometry>
        </mxCell>
        <mxCell id="26" value="" style="fillColor=#09555B;strokeColor=#BAC8D3;fontSize=15;fontColor=#EEEEEE;labelBackgroundColor=none;" parent="1" vertex="1">
          <mxGeometry x="1128.9" y="212" width="10" height="492" as="geometry" />
        </mxCell>
        <mxCell id="33" value="" style="edgeStyle=elbowEdgeStyle;elbow=vertical;endArrow=none;dashed=1;strokeColor=#EA6B66;fontSize=15;fontColor=default;labelBackgroundColor=none;" parent="1" edge="1">
          <mxGeometry x="230.00000000000003" y="310" width="100" height="100" as="geometry">
            <mxPoint x="505" y="128" as="sourcePoint" />
            <mxPoint x="505" y="181" as="targetPoint" />
            <Array as="points">
              <mxPoint x="505" y="141" />
            </Array>
          </mxGeometry>
        </mxCell>
        <mxCell id="W7PPBAMyW4U-8BtLyTJV-130" value="" style="endArrow=classic;html=1;rounded=0;fontColor=default;labelBackgroundColor=none;strokeColor=#0B4D6A;strokeWidth=3;" parent="1" edge="1">
          <mxGeometry width="50" height="50" relative="1" as="geometry">
            <mxPoint x="1141" y="276" as="sourcePoint" />
            <mxPoint x="1138" y="307" as="targetPoint" />
            <Array as="points">
              <mxPoint x="1187" y="276" />
              <mxPoint x="1187" y="307" />
            </Array>
          </mxGeometry>
        </mxCell>
        <mxCell id="W7PPBAMyW4U-8BtLyTJV-155" value="&lt;div style=&quot;background-color: rgb(30, 31, 34);&quot;&gt;&lt;pre style=&quot;font-family:&#39;JetBrains Mono&#39;,monospace;font-size:9.8pt;&quot;&gt;&lt;br&gt;&lt;/pre&gt;&lt;/div&gt;" style="text;whiteSpace=wrap;html=1;fontColor=#EEEEEE;labelBackgroundColor=none;" parent="1" vertex="1">
          <mxGeometry x="1120" y="-40" width="150" height="70" as="geometry" />
        </mxCell>
        <mxCell id="W7PPBAMyW4U-8BtLyTJV-182" value="" style="endArrow=none;dashed=1;html=1;dashPattern=1 3;strokeWidth=2;rounded=0;entryX=0;entryY=0;entryDx=220;entryDy=0;entryPerimeter=0;fontColor=default;labelBackgroundColor=none;strokeColor=#0B4D6A;" parent="1" edge="1">
          <mxGeometry width="50" height="50" relative="1" as="geometry">
            <mxPoint x="2176.1111111111113" y="715" as="sourcePoint" />
            <mxPoint x="2180" y="820" as="targetPoint" />
          </mxGeometry>
        </mxCell>
        <mxCell id="_NU2ZN515jxC7wL2CLro-80" value="" style="endArrow=none;dashed=1;html=1;dashPattern=1 3;strokeWidth=2;rounded=0;fontColor=default;labelBackgroundColor=none;strokeColor=#0B4D6A;" parent="1" edge="1">
          <mxGeometry width="50" height="50" relative="1" as="geometry">
            <mxPoint x="1005.0005939123979" y="423.3800000000001" as="sourcePoint" />
            <mxPoint x="1006.9" y="438" as="targetPoint" />
          </mxGeometry>
        </mxCell>
        <mxCell id="_NU2ZN515jxC7wL2CLro-98" value="&lt;div style=&quot;font-size: 15px;&quot;&gt;&lt;pre style=&quot;text-align: right; font-size: 15px;&quot;&gt;&lt;font face=&quot;Helvetica&quot; color=&quot;#ffffff&quot;&gt;&lt;span style=&quot;white-space-collapse: collapse;&quot;&gt;create_user_keys&lt;/span&gt;&lt;/font&gt;&lt;/pre&gt;&lt;/div&gt;" style="text;html=1;align=center;verticalAlign=middle;resizable=0;points=[];autosize=1;strokeColor=none;fillColor=none;fontColor=#EEEEEE;labelBackgroundColor=none;fontSize=15;" parent="1" vertex="1">
          <mxGeometry x="518" y="215" width="136" height="60" as="geometry" />
        </mxCell>
        <mxCell id="_NU2ZN515jxC7wL2CLro-101" value="&lt;div style=&quot;font-size: 15px;&quot;&gt;&lt;pre style=&quot;font-family: &amp;quot;JetBrains Mono&amp;quot;, monospace; font-size: 15px;&quot;&gt;&lt;span style=&quot;font-size: 15px;&quot;&gt;RPassUserKeys.create()&lt;/span&gt;&lt;/pre&gt;&lt;/div&gt;" style="text;html=1;align=center;verticalAlign=middle;resizable=0;points=[];autosize=1;strokeColor=none;fillColor=none;fontColor=#EEEEEE;labelBackgroundColor=none;fontSize=15;" parent="1" vertex="1">
          <mxGeometry x="1191" y="262" width="217" height="60" as="geometry" />
        </mxCell>
        <mxCell id="rRgI-piEJR2NT5U421E4-78" value="RPassUserKeys&#xa;  - role&#xa;  - publickey&#xa;  - encryptedPrivateKey&#xa;  - IV&#xa;" style="shape=note;align=left;fontSize=15;verticalAlign=top;fontColor=#EEEEEE;fillColor=#333300;labelBackgroundColor=none;strokeColor=#BAC8D3;spacing=3;" parent="1" vertex="1">
          <mxGeometry x="1317" y="141" width="218" height="102" as="geometry" />
        </mxCell>
        <mxCell id="z2O3Q1LjJvFne5vD3scs-73" value="" style="endArrow=none;dashed=1;html=1;dashPattern=1 3;strokeWidth=3;rounded=0;fontColor=default;labelBackgroundColor=none;strokeColor=#0B4D6A;" parent="1" edge="1">
          <mxGeometry width="50" height="50" relative="1" as="geometry">
            <mxPoint x="1300" y="238" as="sourcePoint" />
            <mxPoint x="1280" y="274" as="targetPoint" />
          </mxGeometry>
        </mxCell>
        <mxCell id="HnRHryOFo4jIYyD-wib6-65" value="&lt;font style=&quot;font-size: 14px;&quot; color=&quot;#ea6b66&quot;&gt;New Employee&lt;/font&gt;" style="shape=umlActor;verticalLabelPosition=bottom;verticalAlign=top;html=1;outlineConnect=0;strokeColor=#EA6B66;fillColor=#EA6B66;" vertex="1" parent="1">
          <mxGeometry x="489.5" y="69" width="30" height="60" as="geometry" />
        </mxCell>
        <mxCell id="HnRHryOFo4jIYyD-wib6-70" value="" style="fillColor=#E6D0DE;strokeColor=#E6D0DE;fontSize=15;fontColor=#EEEEEE;labelBackgroundColor=none;" vertex="1" parent="1">
          <mxGeometry x="701" y="376" width="10" height="165" as="geometry" />
        </mxCell>
        <mxCell id="HnRHryOFo4jIYyD-wib6-72" value="" style="edgeStyle=none;endArrow=none;dashed=1;fontSize=15;fontColor=default;labelBackgroundColor=none;strokeColor=#E6D0DE;" edge="1" parent="1">
          <mxGeometry x="727.3350694444446" y="165" width="100" height="100" as="geometry">
            <mxPoint x="705.5" y="123" as="sourcePoint" />
            <mxPoint x="710" y="377" as="targetPoint" />
          </mxGeometry>
        </mxCell>
        <mxCell id="HnRHryOFo4jIYyD-wib6-77" value="&lt;font color=&quot;#99ff99&quot; style=&quot;font-size: 25px;&quot;&gt;Frontend&lt;/font&gt;" style="text;html=1;align=center;verticalAlign=middle;resizable=0;points=[];autosize=1;strokeColor=none;fillColor=none;fontSize=25;" vertex="1" parent="1">
          <mxGeometry x="535.5" y="-4" width="118" height="42" as="geometry" />
        </mxCell>
        <mxCell id="HnRHryOFo4jIYyD-wib6-78" value="" style="edgeStyle=none;verticalLabelPosition=top;verticalAlign=bottom;labelPosition=left;align=right;fontSize=15;fontColor=#FFFFFF;labelBackgroundColor=none;strokeColor=#E6D0DE;strokeWidth=3;entryX=0.31;entryY=0.332;entryDx=0;entryDy=0;entryPerimeter=0;" edge="1" parent="1" target="26">
          <mxGeometry width="100" height="100" as="geometry">
            <mxPoint x="709" y="378" as="sourcePoint" />
            <mxPoint x="1127" y="378" as="targetPoint" />
            <mxPoint x="367" y="495" as="offset" />
          </mxGeometry>
        </mxCell>
        <mxCell id="HnRHryOFo4jIYyD-wib6-79" value="" style="edgeStyle=none;verticalLabelPosition=top;verticalAlign=bottom;labelPosition=left;align=right;fontSize=15;entryX=0.25;entryY=0;entryDx=0;entryDy=0;exitX=0.75;exitY=0;exitDx=0;exitDy=0;fontColor=#FFFFFF;labelBackgroundColor=none;strokeColor=#EA6B66;strokeWidth=3;" edge="1" parent="1" target="26">
          <mxGeometry width="100" height="100" as="geometry">
            <mxPoint x="508" y="213" as="sourcePoint" />
            <mxPoint x="905.4000000000001" y="209" as="targetPoint" />
            <mxPoint x="367" y="495" as="offset" />
          </mxGeometry>
        </mxCell>
        <mxCell id="HnRHryOFo4jIYyD-wib6-81" value="&lt;div style=&quot;font-size: 15px;&quot;&gt;&lt;pre style=&quot;text-align: right; font-size: 15px;&quot;&gt;&lt;font face=&quot;Helvetica&quot; color=&quot;#ffffff&quot;&gt;&lt;span style=&quot;white-space-collapse: collapse;&quot;&gt;first time sign in RPas&lt;/span&gt;&lt;/font&gt;&lt;/pre&gt;&lt;/div&gt;" style="text;html=1;align=center;verticalAlign=middle;resizable=0;points=[];autosize=1;strokeColor=none;fillColor=none;fontColor=#EEEEEE;labelBackgroundColor=none;fontSize=15;" vertex="1" parent="1">
          <mxGeometry x="513" y="172" width="163" height="60" as="geometry" />
        </mxCell>
        <mxCell id="HnRHryOFo4jIYyD-wib6-83" value="&lt;div style=&quot;font-size: 15px;&quot;&gt;&lt;pre style=&quot;text-align: right; font-size: 15px;&quot;&gt;&lt;font face=&quot;Helvetica&quot; color=&quot;#ffffff&quot;&gt;&lt;span style=&quot;white-space-collapse: collapse;&quot;&gt;sign in RPass&lt;/span&gt;&lt;/font&gt;&lt;/pre&gt;&lt;/div&gt;" style="text;html=1;align=center;verticalAlign=middle;resizable=0;points=[];autosize=1;strokeColor=none;fillColor=none;fontColor=#EEEEEE;labelBackgroundColor=none;fontSize=15;" vertex="1" parent="1">
          <mxGeometry x="780" y="331" width="110" height="60" as="geometry" />
        </mxCell>
        <mxCell id="HnRHryOFo4jIYyD-wib6-84" value="" style="edgeStyle=none;verticalLabelPosition=top;verticalAlign=bottom;labelPosition=left;align=right;fontSize=15;entryX=-0.09;entryY=0.422;entryDx=0;entryDy=0;fontColor=#FFFFFF;labelBackgroundColor=none;strokeColor=#E6D0DE;strokeWidth=3;entryPerimeter=0;" edge="1" parent="1" target="26">
          <mxGeometry width="100" height="100" as="geometry">
            <mxPoint x="708" y="421" as="sourcePoint" />
            <mxPoint x="904" y="419" as="targetPoint" />
            <mxPoint x="367" y="495" as="offset" />
          </mxGeometry>
        </mxCell>
        <mxCell id="HnRHryOFo4jIYyD-wib6-91" value="" style="edgeStyle=orthogonalEdgeStyle;rounded=0;orthogonalLoop=1;jettySize=auto;html=1;" edge="1" parent="1" target="26">
          <mxGeometry relative="1" as="geometry">
            <mxPoint x="1091" y="414" as="sourcePoint" />
          </mxGeometry>
        </mxCell>
        <mxCell id="HnRHryOFo4jIYyD-wib6-86" value="&lt;div style=&quot;font-size: 15px;&quot;&gt;&lt;pre style=&quot;text-align: right; font-size: 15px;&quot;&gt;&lt;font face=&quot;Helvetica&quot; color=&quot;#ffffff&quot;&gt;&lt;span style=&quot;white-space-collapse: collapse;&quot;&gt;get_pending_publickeys()&lt;/span&gt;&lt;/font&gt;&lt;/pre&gt;&lt;/div&gt;" style="text;html=1;align=center;verticalAlign=middle;resizable=0;points=[];autosize=1;strokeColor=none;fillColor=none;fontColor=#EEEEEE;labelBackgroundColor=none;fontSize=15;" vertex="1" parent="1">
          <mxGeometry x="777" y="376" width="189" height="60" as="geometry" />
        </mxCell>
        <mxCell id="HnRHryOFo4jIYyD-wib6-87" value="" style="endArrow=classic;html=1;rounded=0;fontColor=default;labelBackgroundColor=none;strokeColor=#0B4D6A;strokeWidth=3;" edge="1" parent="1">
          <mxGeometry width="50" height="50" relative="1" as="geometry">
            <mxPoint x="1140" y="326" as="sourcePoint" />
            <mxPoint x="1137" y="357" as="targetPoint" />
            <Array as="points">
              <mxPoint x="1186" y="326" />
              <mxPoint x="1186" y="357" />
            </Array>
          </mxGeometry>
        </mxCell>
        <mxCell id="HnRHryOFo4jIYyD-wib6-88" value="&lt;div style=&quot;font-size: 15px;&quot;&gt;&lt;pre style=&quot;font-family: &amp;quot;JetBrains Mono&amp;quot;, monospace; font-size: 15px;&quot;&gt;rpass_role_status: PUBLIC_KEY_REGISTERED&lt;/pre&gt;&lt;/div&gt;" style="text;html=1;align=center;verticalAlign=middle;resizable=0;points=[];autosize=1;strokeColor=none;fillColor=none;fontColor=#EEEEEE;labelBackgroundColor=none;fontSize=15;" vertex="1" parent="1">
          <mxGeometry x="1186" y="310" width="379" height="60" as="geometry" />
        </mxCell>
        <mxCell id="HnRHryOFo4jIYyD-wib6-89" value="" style="endArrow=classic;html=1;rounded=0;fontColor=default;labelBackgroundColor=none;strokeColor=#E1D5E7;strokeWidth=3;" edge="1" parent="1">
          <mxGeometry width="50" height="50" relative="1" as="geometry">
            <mxPoint x="714.5" y="444" as="sourcePoint" />
            <mxPoint x="711.5" y="475" as="targetPoint" />
            <Array as="points">
              <mxPoint x="760.5" y="444" />
              <mxPoint x="760.5" y="475" />
            </Array>
          </mxGeometry>
        </mxCell>
        <mxCell id="HnRHryOFo4jIYyD-wib6-90" value="&lt;div style=&quot;font-size: 15px;&quot;&gt;&lt;pre style=&quot;font-family: &amp;quot;JetBrains Mono&amp;quot;, monospace; font-size: 15px;&quot;&gt;encypt_broadcastKey_with_publicKeys&lt;/pre&gt;&lt;/div&gt;" style="text;html=1;align=center;verticalAlign=middle;resizable=0;points=[];autosize=1;strokeColor=none;fillColor=none;fontColor=#EEEEEE;labelBackgroundColor=none;fontSize=15;" vertex="1" parent="1">
          <mxGeometry x="761" y="430" width="334" height="60" as="geometry" />
        </mxCell>
        <mxCell id="HnRHryOFo4jIYyD-wib6-92" value="" style="edgeStyle=none;verticalLabelPosition=top;verticalAlign=bottom;labelPosition=left;align=right;fontSize=15;entryX=0.21;entryY=0.643;entryDx=0;entryDy=0;fontColor=#FFFFFF;labelBackgroundColor=none;strokeColor=#E6D0DE;strokeWidth=3;entryPerimeter=0;" edge="1" parent="1" target="26">
          <mxGeometry width="100" height="100" as="geometry">
            <mxPoint x="709" y="530" as="sourcePoint" />
            <mxPoint x="906" y="529" as="targetPoint" />
            <mxPoint x="367" y="495" as="offset" />
          </mxGeometry>
        </mxCell>
        <mxCell id="HnRHryOFo4jIYyD-wib6-93" value="&lt;div style=&quot;font-size: 15px;&quot;&gt;&lt;pre style=&quot;text-align: right; font-size: 15px;&quot;&gt;&lt;font face=&quot;Helvetica&quot; color=&quot;#ffffff&quot;&gt;&lt;span style=&quot;white-space-collapse: collapse;&quot;&gt;save_company_keys_for_pending_keys&lt;/span&gt;&lt;/font&gt;&lt;/pre&gt;&lt;/div&gt;" style="text;html=1;align=center;verticalAlign=middle;resizable=0;points=[];autosize=1;strokeColor=none;fillColor=none;fontColor=#EEEEEE;labelBackgroundColor=none;fontSize=15;" vertex="1" parent="1">
          <mxGeometry x="780" y="486" width="285" height="60" as="geometry" />
        </mxCell>
        <mxCell id="HnRHryOFo4jIYyD-wib6-94" value="" style="endArrow=classic;html=1;rounded=0;fontColor=default;labelBackgroundColor=none;strokeColor=#0B4D6A;strokeWidth=3;" edge="1" parent="1">
          <mxGeometry width="50" height="50" relative="1" as="geometry">
            <mxPoint x="1141" y="541" as="sourcePoint" />
            <mxPoint x="1138" y="572" as="targetPoint" />
            <Array as="points">
              <mxPoint x="1187" y="541" />
              <mxPoint x="1187" y="572" />
            </Array>
          </mxGeometry>
        </mxCell>
        <mxCell id="HnRHryOFo4jIYyD-wib6-95" value="&lt;div style=&quot;font-size: 15px;&quot;&gt;&lt;pre style=&quot;font-family: &amp;quot;JetBrains Mono&amp;quot;, monospace; font-size: 15px;&quot;&gt;&lt;span style=&quot;font-size: 15px;&quot;&gt;RPassCompanyKeys.create()&lt;/span&gt;&lt;/pre&gt;&lt;/div&gt;" style="text;html=1;align=center;verticalAlign=middle;resizable=0;points=[];autosize=1;strokeColor=none;fillColor=none;fontColor=#EEEEEE;labelBackgroundColor=none;fontSize=15;" vertex="1" parent="1">
          <mxGeometry x="1186" y="525" width="244" height="60" as="geometry" />
        </mxCell>
        <mxCell id="HnRHryOFo4jIYyD-wib6-97" value="RPassCompanyKeys&#xa;  - role&#xa;  - encryptedBroadcastKeys&#xa;" style="shape=note;align=left;fontSize=15;verticalAlign=top;fontColor=#EEEEEE;fillColor=#333300;labelBackgroundColor=none;strokeColor=#BAC8D3;spacing=3;" vertex="1" parent="1">
          <mxGeometry x="1301" y="413" width="216" height="86" as="geometry" />
        </mxCell>
        <mxCell id="HnRHryOFo4jIYyD-wib6-106" value="" style="group" vertex="1" connectable="0" parent="1">
          <mxGeometry x="678" y="68" width="37" height="61" as="geometry" />
        </mxCell>
        <mxCell id="HnRHryOFo4jIYyD-wib6-66" value="" style="shape=umlActor;verticalLabelPosition=bottom;verticalAlign=top;html=1;outlineConnect=0;strokeColor=#E6D0DE;fillColor=#E1D5E7;" vertex="1" parent="HnRHryOFo4jIYyD-wib6-106">
          <mxGeometry x="7" y="1" width="30" height="60" as="geometry" />
        </mxCell>
        <mxCell id="HnRHryOFo4jIYyD-wib6-67" value="&lt;font color=&quot;#f8cecc&quot; style=&quot;font-size: 14px;&quot;&gt;Other Employees&lt;/font&gt;" style="shape=umlActor;verticalLabelPosition=bottom;verticalAlign=top;html=1;outlineConnect=0;strokeColor=#E6D0DE;fillColor=#E6D0DE;" vertex="1" parent="HnRHryOFo4jIYyD-wib6-106">
          <mxGeometry width="30" height="60" as="geometry" />
        </mxCell>
        <mxCell id="HnRHryOFo4jIYyD-wib6-108" value="&lt;font color=&quot;#99ff99&quot; style=&quot;font-size: 25px;&quot;&gt;Backend&lt;/font&gt;" style="text;html=1;align=center;verticalAlign=middle;resizable=0;points=[];autosize=1;strokeColor=none;fillColor=none;fontSize=25;" vertex="1" parent="1">
          <mxGeometry x="1195" y="-4" width="115" height="42" as="geometry" />
        </mxCell>
        <mxCell id="HnRHryOFo4jIYyD-wib6-109" value="" style="endArrow=classic;html=1;rounded=0;fontColor=default;labelBackgroundColor=none;strokeColor=#0B4D6A;strokeWidth=3;" edge="1" parent="1">
          <mxGeometry width="50" height="50" relative="1" as="geometry">
            <mxPoint x="1139" y="597" as="sourcePoint" />
            <mxPoint x="1136" y="628" as="targetPoint" />
            <Array as="points">
              <mxPoint x="1185" y="597" />
              <mxPoint x="1185" y="628" />
            </Array>
          </mxGeometry>
        </mxCell>
        <mxCell id="HnRHryOFo4jIYyD-wib6-110" value="" style="endArrow=none;dashed=1;html=1;dashPattern=1 3;strokeWidth=3;rounded=0;fontColor=default;labelBackgroundColor=none;strokeColor=#0B4D6A;" edge="1" parent="1">
          <mxGeometry width="50" height="50" relative="1" as="geometry">
            <mxPoint x="1290" y="508" as="sourcePoint" />
            <mxPoint x="1262" y="536" as="targetPoint" />
          </mxGeometry>
        </mxCell>
        <mxCell id="HnRHryOFo4jIYyD-wib6-111" value="&lt;div style=&quot;font-size: 15px;&quot;&gt;&lt;pre style=&quot;font-family: &amp;quot;JetBrains Mono&amp;quot;, monospace; font-size: 15px;&quot;&gt;rpass_role_status: BROADCASTKEY_REGISTERED&lt;/pre&gt;&lt;/div&gt;" style="text;html=1;align=center;verticalAlign=middle;resizable=0;points=[];autosize=1;strokeColor=none;fillColor=none;fontColor=#EEEEEE;labelBackgroundColor=none;fontSize=15;" vertex="1" parent="1">
          <mxGeometry x="1183" y="581" width="397" height="60" as="geometry" />
        </mxCell>
        <mxCell id="HnRHryOFo4jIYyD-wib6-112" value="" style="edgeStyle=none;verticalLabelPosition=top;verticalAlign=bottom;labelPosition=left;align=right;fontSize=15;entryX=0.25;entryY=0;entryDx=0;entryDy=0;exitX=0.75;exitY=0;exitDx=0;exitDy=0;fontColor=#FFFFFF;labelBackgroundColor=none;strokeColor=#EA6B66;strokeWidth=3;" edge="1" parent="1">
          <mxGeometry width="100" height="100" as="geometry">
            <mxPoint x="505.9" y="690" as="sourcePoint" />
            <mxPoint x="1128.9" y="689" as="targetPoint" />
            <mxPoint x="367" y="495" as="offset" />
          </mxGeometry>
        </mxCell>
        <mxCell id="HnRHryOFo4jIYyD-wib6-114" value="&lt;div style=&quot;font-size: 15px;&quot;&gt;&lt;pre style=&quot;text-align: right; font-size: 15px;&quot;&gt;&lt;font face=&quot;Helvetica&quot; color=&quot;#ffffff&quot;&gt;&lt;span style=&quot;white-space-collapse: collapse;&quot;&gt;sign in RPass and view company vault items&lt;/span&gt;&lt;/font&gt;&lt;/pre&gt;&lt;/div&gt;" style="text;html=1;align=center;verticalAlign=middle;resizable=0;points=[];autosize=1;strokeColor=none;fillColor=none;fontColor=#EEEEEE;labelBackgroundColor=none;fontSize=15;" vertex="1" parent="1">
          <mxGeometry x="519.5" y="644" width="314" height="60" as="geometry" />
        </mxCell>
      </root>
    </mxGraphModel>
  </diagram>
</mxfile>
